HIERARCHY
ROOT Hips
{
    OFFSET 0.000000 0.000000 0.000000
    CHANNELS 6 Xposition Yposition Zposition Zrotation Xrotation Yrotation
    JOINT Spine
    {
        OFFSET -0.000000 7.246840 0.000000
        CHANNELS 3 Zrotation Xrotation Yrotation
        JOINT Spine1
        {
            OFFSET -0.000000 20.289354 0.000000
            CHANNELS 3 Zrotation Xrotation Yrotation
            JOINT Neck
            {
                OFFSET -0.000000 20.206032 1.836912
                CHANNELS 3 Zrotation Xrotation Yrotation
                JOINT Head
                {
                    OFFSET -0.000000 12.372654 -1.767522
                    CHANNELS 3 Zrotation Xrotation Yrotation
                    End Site
                    {
                        OFFSET -0.000000 22.094025 0.000000
                    }
                }
            }
            JOINT LeftShoulder
            {
                OFFSET 3.465871 17.201674 -0.568930
                CHANNELS 3 Zrotation Xrotation Yrotation
                JOINT LeftArm
                {
                    OFFSET 14.070313 0.000000 0.000000
                    CHANNELS 3 Zrotation Xrotation Yrotation
                    JOINT LeftForeArm
                    {
                        OFFSET 26.549477 0.000000 0.000000
                        CHANNELS 3 Zrotation Xrotation Yrotation
                        JOINT LeftHand
                        {
                            OFFSET 18.880413 0.000000 0.000000
                            CHANNELS 3 Zrotation Xrotation Yrotation
                            End Site
                            {
                                OFFSET 13.256415 0.000000 0.000000
                            }
                        }
                    }
                }
            }
            JOINT RightShoulder
            {
                OFFSET -3.526370 17.201674 -0.568930
                CHANNELS 3 Zrotation Xrotation Yrotation
                JOINT RightArm
                {
                    OFFSET -14.070313 0.000000 0.000000
                    CHANNELS 3 Zrotation Xrotation Yrotation
                    JOINT RightForeArm
                    {
                        OFFSET -26.549477 0.000000 0.000000
                        CHANNELS 3 Zrotation Xrotation Yrotation
                        JOINT RightHand
                        {
                            OFFSET -18.880413 0.000000 0.000000
                            CHANNELS 3 Zrotation Xrotation Yrotation
                            End Site
                            {
                                OFFSET -13.256415 0.000000 0.000000
                            }
                        }
                    }
                }
            }
        }
    }
    JOINT LeftUpLeg
    {
        OFFSET 8.837609 0.000000 0.000000
        CHANNELS 3 Zrotation Xrotation Yrotation
        JOINT LeftLeg
        {
            OFFSET -0.000000 -41.345005 0.000000
            CHANNELS 3 Zrotation Xrotation Yrotation
            JOINT LeftFoot
            {
                OFFSET -0.000000 -35.500874 0.000000
                CHANNELS 3 Zrotation Xrotation Yrotation
                JOINT LeftToeBase
                {
                    OFFSET -0.000000 -5.744446 13.256415
                    CHANNELS 3 Zrotation Xrotation Yrotation
                    End Site
                    {
                        OFFSET -0.000000 0.000000 3.535044
                    }
                }
            }
        }
    }
    JOINT RightUpLeg
    {
        OFFSET -8.837609 0.000000 0.000000
        CHANNELS 3 Zrotation Xrotation Yrotation
        JOINT RightLeg
        {
            OFFSET -0.000000 -41.345005 0.000000
            CHANNELS 3 Zrotation Xrotation Yrotation
            JOINT RightFoot
            {
                OFFSET -0.000000 -35.500874 0.000000
                CHANNELS 3 Zrotation Xrotation Yrotation
                JOINT RightToeBase
                {
                    OFFSET -0.000000 -5.744446 13.256415
                    CHANNELS 3 Zrotation Xrotation Yrotation
                    End Site
                    {
                        OFFSET -0.000000 0.000000 3.535044
                    }
                }
            }
        }
    }
}
MOTION
Frames:    14
Frame Time:    0.010000
2.001865    82.374374    -9.654490    2.720532    4.500180    -3.073368    -3.450093    -15.429010    -0.326571    -0.887475    3.153430    0.165748    2.987788    29.233944    -1.041759    2.539838    -10.404427    -0.116405    19.091516    0.907000    7.670634    -31.951334    9.743890    -10.684488    7.777341    -11.938124    -17.082762    -31.161196    -10.978882    0.685656    -14.778698    0.771198    12.296640    22.658344    10.141298    8.790298    -4.451418    -7.733470    6.873163    7.984859    -6.371162    15.736087    -2.602428    7.771891    3.440902    -1.645811    -9.829731    -2.948806    3.552121    -0.135999    0.986926    0.238247    -1.373350    -0.336316    -8.635527    4.812036    -0.231602    7.525526    -8.290643    1.240784    1.138850    -2.397039    -7.206578    -0.669085    0.447381    1.194106    
1.997966    82.373657    -9.652091    2.726401    4.505936    -3.072506    -3.443758    -15.436455    -0.326636    -0.890657    3.169369    0.164765    2.970618    29.244316    -1.035671    2.560043    -10.442650    -0.106498    19.096205    0.867746    7.645092    -31.946184    9.779139    -10.621388    7.768052    -11.974226    -17.103336    -31.129232    -11.014089    0.682799    -14.783472    0.762669    12.292133    22.638203    10.108961    8.788034    -4.436901    -7.707261    6.860670    8.040825    -6.337357    15.752028    -2.608883    7.768149    3.441494    -1.645324    -9.830441    -2.929428    3.499961    -0.135649    0.969686    0.220650    -1.389421    -0.311507    -8.634735    4.808951    -0.226170    7.517580    -8.298336    1.215474    1.153698    -2.393677    -7.193678    -0.659677    0.435228    1.177469    
1.994583    82.373138    -9.649748    2.734911    4.511417    -3.069697    -3.449471    -15.439078    -0.333552    -0.882285    3.174318    0.158901    2.980449    29.233292    -1.033411    2.537292    -10.430600    -0.108706    19.097000    0.862575    7.644715    -31.955372    9.761102    -10.602899    7.754124    -12.007934    -17.110563    -31.052828    -11.043080    0.661041    -14.784135    0.760241    12.291398    22.606009    10.102596    8.790203    -4.437885    -7.690906    6.890545    8.086186    -6.322145    15.630847    -2.609036    7.763947    3.422657    -1.633788    -9.839869    -2.988458    3.505927    -0.120399    1.047902    0.212180    -1.399751    -0.299568    -8.642532    4.810179    -0.223608    7.521634    -8.306665    1.201155    1.139449    -2.400689    -7.178168    -0.663654    0.451715    1.184360    
1.991532    82.372177    -9.648084    2.740024    4.512955    -3.067790    -3.443153    -15.437514    -0.334112    -0.885609    3.181415    0.157439    2.995969    29.248446    -1.033712    2.518750    -10.469884    -0.110117    19.101814    0.869618    7.644002    -31.968616    9.724479    -10.597023    7.745615    -12.014069    -17.116934    -30.965429    -11.042805    0.636374    -14.786928    0.750362    12.279922    22.581831    10.117904    8.793743    -4.429288    -7.665357    6.894145    8.070809    -6.298715    15.634842    -2.612380    7.761789    3.419355    -1.638585    -9.829589    -2.972290    3.493551    -0.144724    1.022235    0.208527    -1.383853    -0.294382    -8.648763    4.813730    -0.210645    7.525985    -8.313085    1.224308    1.146614    -2.400948    -7.207650    -0.655045    0.443438    1.169100    
1.986044    82.371384    -9.647051    2.742941    4.520083    -3.069198    -3.447296    -15.433784    -0.340210    -0.862816    3.173906    0.150850    2.954537    29.248146    -1.017286    2.554056    -10.469198    -0.090086    19.084110    0.863567    7.648334    -31.961716    9.723112    -10.580704    7.732759    -12.031148    -17.121799    -30.871075    -11.052508    0.605229    -14.813501    0.759435    12.280479    22.572073    10.126992    8.802487    -4.441186    -7.663825    6.892970    8.027209    -6.300887    15.657420    -2.610788    7.751685    3.414634    -1.641699    -9.822800    -2.942431    3.488471    -0.152419    1.000479    0.216547    -1.383674    -0.305703    -8.642859    4.808215    -0.219794    7.517152    -8.315689    1.219797    1.120540    -2.405906    -7.195921    -0.658252    0.465632    1.174545    
1.982920    82.370178    -9.645238    2.747558    4.527520    -3.066386    -3.453955    -15.429429    -0.342920    -0.842779    3.159798    0.148665    2.943864    29.263691    -1.018142    2.564816    -10.479463    -0.089150    19.064018    0.899723    7.664728    -31.949986    9.706425    -10.624813    7.745335    -12.018154    -17.104801    -30.821470    -11.034271    0.589682    -14.824990    0.789814    12.278410    22.550777    10.105000    8.797416    -4.451190    -7.677177    6.907921    7.936503    -6.324733    15.669230    -2.609346    7.743957    3.395870    -1.640551    -9.819581    -2.961166    3.480506    -0.153502    1.050871    0.214902    -1.388682    -0.303391    -8.649207    4.810153    -0.215013    7.522835    -8.329019    1.242536    1.117533    -2.410224    -7.225136    -0.654448    0.459107    1.167839    
1.978832    82.368797    -9.644346    2.749780    4.531917    -3.063888    -3.451221    -15.421784    -0.343100    -0.838828    3.149983    0.147438    2.954876    29.275328    -1.009163    2.561458    -10.501363    -0.078314    19.065670    0.860101    7.637457    -31.947891    9.764564    -10.567896    7.768220    -12.019412    -17.109188    -30.809738    -11.026333    0.569551    -14.831351    0.799201    12.276278    22.542307    10.115189    8.783836    -4.471468    -7.702281    6.913689    7.836802    -6.356571    15.750294    -2.602414    7.733552    3.399009    -1.656093    -9.800365    -2.954406    3.514701    -0.175007    1.014434    0.207858    -1.399650    -0.293466    -8.645797    4.811058    -0.213369    7.521678    -8.339409    1.204997    1.116699    -2.403415    -7.194608    -0.663163    0.454704    1.183446    
1.975220    82.366920    -9.641319    2.752429    4.536942    -3.064478    -3.443931    -15.417467    -0.340029    -0.840857    3.142433    0.149360    2.967809    29.280064    -1.016472    2.557311    -10.508567    -0.084995    19.069960    0.864201    7.642729    -31.955116    9.752602    -10.580458    7.779718    -12.002504    -17.098188    -30.808832    -10.996839    0.526773    -14.833053    0.815882    12.264944    22.525391    10.101757    8.788856    -4.488835    -7.733509    6.922724    7.744622    -6.399972    15.739161    -2.602556    7.724525    3.390778    -1.649527    -9.792675    -2.967014    3.505602    -0.183765    1.040684    0.227196    -1.406790    -0.320783    -8.650474    4.815956    -0.208761    7.528735    -8.351916    1.213127    1.107370    -2.408953    -7.203301    -0.669074    0.452847    1.194017    
1.970890    82.364494    -9.639500    2.754573    4.538664    -3.065135    -3.445631    -15.406865    -0.340323    -0.826743    3.131679    0.148519    2.949781    29.264391    -1.009350    2.583194    -10.483159    -0.074850    19.050705    0.890902    7.666410    -31.932177    9.738626    -10.625120    7.784320    -11.992822    -17.084513    -30.829697    -10.983198    0.510972    -14.837415    0.810599    12.265026    22.475151    10.273802    8.746342    -4.490320    -7.842465    7.005103    7.665205    -6.520874    15.680263    -2.596338    7.719279    3.381810    -1.668393    -9.774619    -2.944972    3.516105    -0.202822    1.021227    0.209375    -1.401338    -0.295610    -8.648701    4.820286    -0.223583    7.532321    -8.361934    1.231844    1.101757    -2.407699    -7.208033    -0.678088    0.467803    1.209910    
1.967150    82.364182    -9.637133    2.759255    4.546944    -3.068697    -3.435499    -15.406810    -0.336259    -0.837631    3.123078    0.151844    2.956694    29.276529    -1.010022    2.585388    -10.497824    -0.073523    19.049410    0.888234    7.659407    -31.932753    9.714528    -10.609349    7.789308    -12.016953    -17.096277    -30.876160    -11.007559    0.516344    -14.829981    0.824666    12.258089    22.441711    10.284038    8.751911    -4.488918    -7.827589    7.002222    7.632461    -6.509318    15.700085    -2.598621    7.707821    3.385731    -1.668237    -9.766107    -2.953596    3.517050    -0.222867    0.998332    0.183195    -1.375567    -0.258607    -8.649781    4.818000    -0.212101    7.527541    -8.371161    1.227914    1.112676    -2.409865    -7.212566    -0.663063    0.475613    1.183003    
1.962088    82.363525    -9.634864    2.763019    4.548756    -3.072829    -3.439007    -15.396308    -0.337943    -0.830891    3.110341    0.149644    2.970168    29.306652    -1.029218    2.591326    -10.540232    -0.088533    19.055311    0.865600    7.643066    -31.951502    9.718229    -10.549494    7.786906    -12.064387    -17.130045    -30.905552    -11.050311    0.505031    -14.822573    0.828045    12.263899    22.403131    10.314219    8.738126    -4.486129    -7.840802    7.021841    7.653861    -6.518740    15.704177    -2.596617    7.704236    3.383278    -1.670138    -9.758328    -2.966753    3.530723    -0.211359    1.052746    0.219346    -1.394297    -0.309675    -8.649686    4.819216    -0.213689    7.528644    -8.379419    1.228406    1.111829    -2.402712    -7.206733    -0.673456    0.474304    1.201562    
1.957076    82.364166    -9.633631    2.766970    4.555734    -3.078238    -3.440797    -15.390730    -0.337630    -0.823758    3.098896    0.149929    2.975533    29.289476    -1.029004    2.585419    -10.510261    -0.090155    19.043348    0.908111    7.683058    -31.951185    9.656659    -10.609248    7.785985    -12.070159    -17.124716    -30.947441    -11.057317    0.507039    -14.838625    0.833857    12.260967    22.391611    10.340808    8.737732    -4.460796    -7.739713    7.041556    7.652339    -6.424941    15.607006    -2.598037    7.693560    3.398105    -1.666237    -9.745061    -2.974413    3.484767    -0.221213    1.046566    0.191973    -1.393255    -0.271027    -8.653677    4.815753    -0.195241    7.533029    -8.382812    1.246508    1.100834    -2.403454    -7.237041    -0.672439    0.462836    1.199893    
1.952086    82.365326    -9.628887    2.769186    4.558772    -3.090452    -3.434960    -15.385468    -0.331046    -0.820083    3.083694    0.155118    2.980420    29.298000    -1.034781    2.580311    -10.508989    -0.096620    19.035646    0.930545    7.682520    -31.957539    9.627424    -10.612550    7.785602    -12.083588    -17.125954    -30.962305    -11.073639    0.517262    -14.851931    0.840390    12.260613    22.380360    10.366491    8.735584    -4.485074    -7.858408    7.048962    7.705164    -6.532163    15.648373    -2.596722    7.694467    3.390005    -1.667546    -9.747579    -2.951255    3.503265    -0.226734    1.047094    0.216116    -1.419072    -0.305161    -8.651985    4.815516    -0.185618    7.532780    -8.387576    1.248740    1.092825    -2.408713    -7.243866    -0.676661    0.459079    1.207475    
1.947929    82.365311    -9.623716    2.772916    4.559827    -3.102212    -3.427856    -15.382371    -0.320755    -0.825792    3.076872    0.164887    2.993906    29.317213    -1.036275    2.581706    -10.534295    -0.094979    19.034229    0.927435    7.670616    -31.965916    9.626080    -10.595948    7.790848    -12.097279    -17.133446    -30.966583    -11.088313    0.525293    -14.862278    0.850882    12.251370    22.381361    10.374047    8.729223    -4.486596    -7.867773    7.068144    7.716028    -6.540087    15.635833    -2.602658    7.697687    3.394252    -1.656436    -9.742586    -2.966825    3.502324    -0.225595    1.081308    0.215139    -1.427189    -0.303796    -8.654000    4.817443    -0.176955    7.533868    -8.396696    1.219676    1.106542    -2.391402    -7.205476    -0.671334    0.445323    1.198147    
